{
	"asset":{
		"generator":"Khronos glTF Blender I/O v4.0.44",
		"version":"2.0"
	},
	"extensionsUsed":[
		"KHR_materials_specular",
		"KHR_materials_ior"
	],
	"scene":0,
	"scenes":[
		{
			"name":"Scene",
			"nodes":[
				0
			]
		}
	],
	"nodes":[
		{
			"mesh":0,
			"name":"humanBody",
			"rotation":[
				0.7071068286895752,
				0,
				0,
				0.7071068286895752
			],
			"scale":[
				0.10000000149011612,
				0.10000000149011612,
				0.10000000149011612
			]
		}
	],
	"materials":[
		{
			"doubleSided":true,
			"extensions":{
				"KHR_materials_specular":{
					"specularColorFactor":[
						2.0,
						2.0,
						2.0
					]
				},
				"KHR_materials_ior":{
					"ior":1.4500000476837158
				}
			},
			"name":"Material.001",
			"pbrMetallicRoughness":{
				"roughnessFactor":0.7669764161109924
			}
		}
	],
	"meshes":[
		{
			"name":"humanBody",
			"primitives":[
				{
					"attributes":{
						"POSITION":0,
						"NORMAL":1,
						"TEXCOORD_0":2
					},
					"indices":3,
					"material":0
				}
			]
		}
	],
	"accessors":[
		{
			"bufferView":0,
			"componentType":5126,
			"count":34746,
			"max":[
				47.59498977661133,
				16.704408645629883,
				0.3717738389968872
			],
			"min":[
				-47.594993591308594,
				-17.448915481567383,
				-182.24302673339844
			],
			"type":"VEC3"
		},
		{
			"bufferView":1,
			"componentType":5126,
			"count":34746,
			"type":"VEC3"
		},
		{
			"bufferView":2,
			"componentType":5126,
			"count":34746,
			"type":"VEC2"
		},
		{
			"bufferView":3,
			"componentType":5123,
			"count":198528,
			"type":"SCALAR"
		}
	],
	"bufferViews":[
		{
			"buffer":0,
			"byteLength":416952,
			"byteOffset":0,
			"target":34962
		},
		{
			"buffer":0,
			"byteLength":416952,
			"byteOffset":416952,
			"target":34962
		},
		{
			"buffer":0,
			"byteLength":277968,
			"byteOffset":833904,
			"target":34962
		},
		{
			"buffer":0,
			"byteLength":397056,
			"byteOffset":1111872,
			"target":34963
		}
	],
	"buffers":[
		{
			"byteLength":1508928,
			"uri":"KiaNBlackAndWhite.bin"
		}
	]
}
